<?xml version="1.0" standalone="no"?>
<!DOCTYPE svg PUBLIC "-//W3C//DTD SVG 20010904//EN"
 "http://www.w3.org/TR/2001/REC-SVG-20010904/DTD/svg10.dtd">
<svg version="1.0" xmlns="http://www.w3.org/2000/svg"
 width="256.000000pt" height="117.000000pt" viewBox="0 0 256.000000 117.000000"
 preserveAspectRatio="xMidYMid meet">

<g transform="translate(0.000000,117.000000) scale(0.100000,-0.100000)"
fill="#FFFFF" stroke="none">
<path d="M571 951 c-6 -11 -11 -67 -11 -125 l0 -106 40 0 41 0 -3 123 -3 122
-27 3 c-18 2 -30 -3 -37 -17z"/>
<path d="M202 698 c-18 -18 -14 -46 8 -58 12 -6 65 -9 127 -8 l108 3 3 38 3
37 -118 0 c-79 0 -123 -4 -131 -12z"/>
<path d="M650 560 c0 -33 4 -40 19 -40 12 0 18 7 17 17 0 12 7 19 22 21 14 2
22 10 22 23 0 16 -7 19 -40 19 l-40 0 0 -40z"/>
<path d="M780 575 c0 -18 -5 -25 -20 -25 -11 0 -20 -7 -20 -15 0 -10 11 -15
35 -15 28 0 35 4 35 20 0 15 7 20 25 20 18 0 25 5 25 20 0 17 -7 20 -40 20
-36 0 -40 -2 -40 -25z"/>
<path d="M870 535 c0 -8 7 -15 15 -15 8 0 15 7 15 15 0 8 -7 15 -15 15 -8 0
-15 -7 -15 -15z"/>
<path d="M450 404 c0 -116 9 -144 44 -144 32 0 36 15 36 141 l0 109 -40 0 -40
0 0 -106z"/>
<path d="M740 336 c0 -114 2 -136 15 -136 12 0 15 18 15 102 0 56 4 98 8 93 5
-6 21 -43 37 -82 37 -96 53 -96 90 0 15 39 32 76 36 82 5 5 9 -35 9 -93 0 -84
3 -102 15 -102 13 0 15 22 15 136 0 134 0 135 -22 132 -18 -2 -29 -21 -57 -90
-19 -49 -38 -88 -42 -88 -4 0 -22 39 -41 88 -27 70 -38 88 -56 90 -22 3 -22 2
-22 -132z"/>
<path d="M1340 420 l0 -50 -43 6 c-57 8 -81 -17 -81 -86 0 -72 21 -91 96 -88
l58 3 0 133 c0 111 -2 132 -15 132 -11 0 -15 -12 -15 -50z m-2 -129 c3 -47 1
-52 -23 -61 -45 -17 -65 2 -65 61 0 42 3 51 23 58 42 16 62 -1 65 -58z"/>
<path d="M1862 344 c3 -107 6 -129 20 -138 21 -13 36 0 20 16 -8 8 -12 52 -12
130 0 99 -2 118 -15 118 -13 0 -15 -18 -13 -126z"/>
<path d="M1421 447 c-7 -7 -7 -14 0 -23 12 -15 39 -7 39 11 0 18 -25 26 -39
12z"/>
<path d="M1050 360 c-15 -15 -20 -33 -20 -70 0 -68 24 -92 87 -88 29 2 48 8
51 17 4 11 -3 13 -31 8 -38 -6 -77 13 -77 39 0 10 14 14 55 14 l55 0 0 33 c0
20 -8 41 -18 50 -25 23 -78 21 -102 -3z m88 -37 c3 -21 -1 -23 -37 -23 -27 0
-41 4 -41 13 0 41 72 50 78 10z"/>
<path d="M1420 302 c0 -77 9 -102 37 -102 7 0 13 7 13 15 0 8 -4 15 -10 15 -6
0 -10 32 -10 75 0 60 -3 75 -15 75 -12 0 -15 -15 -15 -78z"/>
<path d="M1530 360 c-15 -15 -20 -33 -20 -70 0 -64 23 -90 80 -90 29 0 40 4
40 15 0 10 -10 15 -33 15 -42 0 -57 15 -57 60 0 45 15 60 57 60 23 0 33 5 33
15 0 24 -75 20 -100 -5z"/>
<path d="M1687 373 c-16 -15 -4 -23 34 -21 25 1 44 -4 49 -12 12 -20 3 -30
-28 -30 -41 0 -72 -26 -72 -59 0 -40 19 -51 83 -48 l57 2 0 65 c0 86 -16 110
-74 110 -23 0 -46 -3 -49 -7z m91 -110 c4 -26 -29 -47 -58 -38 -23 7 -26 35
-8 53 20 20 63 10 66 -15z"/>
</g>
</svg>
